{"title":"The.Greatest.Story.Ever.Told.1965.1080p.BluRay.x264-KaKa","uid":6337387,"size":15316974694,"categoryP":"video","categoryS":"hd___movies","magnet":"?xt=urn:btih:123ceebaec14598c2a8f7f83381b9f9c59dbbbec&amp;dn=The.Greatest.Story.Ever.Told.1965.1080p.BluRay.x264-KaKa&amp;tr=udp%3A%2F%2Ftracker.openbittorrent.com%3A80&amp;tr=udp%3A%2F%2Fopen.demonii.com%3A1337&amp;tr=udp%3A%2F%2Ftracker.coppersurfer.tk%3A6969&amp;tr=udp%3A%2F%2Fexodus.desync.com%3A6969","seeders":1,"leechers":2,"uploader":"Wind8Water","files":-1,"time":1303524015,"description":"&quot;A magnificent film, handled with reverence, artistic appreciation and\nadmirable restraint&quot; (New York Daily News)\nThis glorious epic is an inspiring,grand-scale recreation of the life of Jesus\nof Nazareth, from His humble birth and teachings to His crucifixion and\nultimate Resurrection. Lavishly produced at a cost of $20 millions, enormous\namount for the time and honored with five 1965 Academy Award nominations, this\nexceptional motion picture is exquisitely beautiful. Now fully restored to its\noriginal theatrical brilliance with intermission and overture, it is truly The\nGreatest Story Ever Told.\n\n &lt;a href=&quot;\nhttp://en.wikipedia.org/wiki/The_Greatest_Story_Ever_Told&quot; rel=&quot;nofollow&quot; target=&quot;_NEW&quot;&gt;\nhttp://en.wikipedia.org/wiki/The_Greatest_Story_Ever_Told&lt;/a&gt;\n &lt;a href=&quot;\nhttp://www.imdb.com/title/tt0059245/&quot; rel=&quot;nofollow&quot; target=&quot;_NEW&quot;&gt;\nhttp://www.imdb.com/title/tt0059245/&lt;/a&gt;\n\n\nR E L E A S E     I N F O\n\nRELEASE..... 11/04/08\nRIPPER..... KaKa\nCOUNTRY..... USA\nIMDb RATING..... 6.3/10 (3,432 votes)\nFRAME RATE..... 23.976Fps\nVIDEO CODEC..... X264 8700K\nAUDIO CODEC..... DTS 1536K\nRESOLUTION.... 1920x704\nRUNTIME.... 199MiN\n\nGENRE..... Biography | Drama | History\n\nLANGUAGE..... English\n\n\nSubtitles (not embedded): English, Romanian, Spanish\n\nScreenshots &amp; Sample included\n\n\nMedia Info\n\nFormat                            : Matroska\n File size                        : 14.2 GiB\n Duration                         : 3h 19mn\n Overall bit rate                 : 10.2 Mbps\n Encoded date                     : UTC 2011-04-08 00:00:45\n Writing application              : mkvmerge v4.5.0 ('Speed of Light')\n                                    built on Feb  1 2011 02:10:32\n Writing library                  : libebml v1.2.0 + libmatroska v1.1.0\n\nVideo\n Format                           : AVC\n Format profile                   : &lt;a class=&quot;__cf_email__&quot; href=&quot;/cdn-cgi/l/email-protection&quot; data-cfemail=&quot;1d55747a755d5129332c&quot;&gt;[email&amp;#160;protected]&lt;/a&gt;&lt;script cf-hash='f9e31' type=&quot;text/javascript&quot;&gt;\n/* &lt;![CDATA[ */!function(){try{var t=&quot;currentScript&quot;in document?document.currentScript:function(){for(var t=document.getElementsByTagName(&quot;script&quot;),e=t.length;e--;)if(t[e].getAttribute(&quot;cf-hash&quot;))return t[e]}();if(t&amp;&amp;t.previousSibling){var e,r,n,i,c=t.previousSibling,a=c.getAttribute(&quot;data-cfemail&quot;);if(a){for(e=&quot;&quot;,r=parseInt(a.substr(0,2),16),n=2;a.length-n;n+=2)i=parseInt(a.substr(n,2),16)^r,e+=String.fromCharCode(i);e=document.createTextNode(e),c.parentNode.replaceChild(e,c)}}}catch(u){}}();/* ]]&gt; */&lt;/script&gt;\n Format settings, CABAC           : Yes\n Format settings, ReFrames        : 5 frames\n Bit rate                         : 8 700 Kbps\n Width                            : 1 920 pixels\n Height                           : 704 pixels\n Display aspect ratio             : 2.727\n Frame rate                       : 23.976 fps\n Color space                      : YUV\n Chroma subsampling               : 4:2:0\n Bit depth                        : 8 bits\n Scan type                        : Progressive\n Bits/(Pixel*Frame)               : 0.268\n Stream size                      : 11.8 GiB (83%)\n Writing library                  : x264 core 114 r1924 08d04a4\n Language                         : English\n\nAudio\n Format                           : DTS\n Bit rate mode                    : Constant\n Bit rate                         : 1 510 Kbps\n Channel(s)                       : 6 channels\n Channel positions                : Front: L C R, Side: L R, LFE\n Sampling rate                    : 48.0 KHz\n Bit depth                        : 24 bits\n Compression mode                 : Lossy\n Stream size                      : 2.10 GiB (15%)\n Language                         : English\n\n\n\n                                Enjoy &amp; Please Seed  !\t\t","torrent":{"xt":"urn:btih:123ceebaec14598c2a8f7f83381b9f9c59dbbbec","amp;dn":"The.Greatest.Story.Ever.Told.1965.1080p.BluRay.x264-KaKa","amp;tr":["udp%3A%2F%2Ftracker.openbittorrent.com%3A80","udp%3A%2F%2Fopen.demonii.com%3A1337","udp%3A%2F%2Ftracker.coppersurfer.tk%3A6969","udp%3A%2F%2Fexodus.desync.com%3A6969"],"infoHash":"123ceebaec14598c2a8f7f83381b9f9c59dbbbec","infoHashBuffer":{"type":"Buffer","data":[18,60,238,186,236,20,89,140,42,143,127,131,56,27,159,156,89,219,187,236]},"announce":[],"urlList":[]}}